<svg version="1.0" xmlns="http://www.w3.org/2000/svg" xmlns:xlink="http://www.w3.org/1999/xlink" viewBox="0 0 100 100"><svg xmlns="http://www.w3.org/2000/svg" xmlns:xlink="http://www.w3.org/1999/xlink" width="100" height="100" viewBox="0 0 2000 2000" shape-rendering="crispEdges"><path fill="#fff" d="M0 0h2000v2000H0z"/><path d="M743 173h57v57h-57zM857 173h57v57h-57zM971 173h57v57h-57zM1028 173h57v57h-57zM1085 173h57v57h-57zM1199 173h57v57h-57zM1256 173h57v57h-57zM629 230h57v57h-57zM743 230h57v57h-57zM914 230h57v57h-57zM971 230h57v57h-57zM1028 230h57v57h-57zM1142 230h57v57h-57zM1199 230h57v57h-57zM1313 230h57v57h-57zM857 287h57v57h-57zM971 287h57v57h-57zM1085 287h57v57h-57zM1142 287h57v57h-57zM1199 287h57v57h-57zM1256 287h57v57h-57zM1313 287h57v57h-57zM629 344h57v57h-57zM686 344h57v57h-57zM743 344h57v57h-57zM857 344h57v57h-57zM914 344h57v57h-57zM1028 344h57v57h-57zM1142 344h57v57h-57zM1313 344h57v57h-57zM686 401h57v57h-57zM971 401h57v57h-57zM1028 401h57v57h-57zM1085 401h57v57h-57zM1199 401h57v57h-57zM629 458h57v57h-57zM686 458h57v57h-57zM800 458h57v57h-57zM857 458h57v57h-57zM914 458h57v57h-57zM971 458h57v57h-57zM1142 458h57v57h-57zM629 515h57v57h-57zM743 515h57v57h-57zM857 515h57v57h-57zM971 515h57v57h-57zM1085 515h57v57h-57zM1199 515h57v57h-57zM1313 515h57v57h-57zM686 572h57v57h-57zM743 572h57v57h-57zM800 572h57v57h-57zM971 572h57v57h-57zM1085 572h57v57h-57zM1199 572h57v57h-57zM1256 572h57v57h-57zM1313 572h57v57h-57zM173 629h57v57h-57zM230 629h57v57h-57zM287 629h57v57h-57zM344 629h57v57h-57zM401 629h57v57h-57zM515 629h57v57h-57zM572 629h57v57h-57zM629 629h57v57h-57zM686 629h57v57h-57zM800 629h57v57h-57zM971 629h57v57h-57zM1028 629h57v57h-57zM1085 629h57v57h-57zM1142 629h57v57h-57zM1313 629h57v57h-57zM1370 629h57v57h-57zM1484 629h57v57h-57zM1598 629h57v57h-57zM1712 629h57v57h-57zM230 686h57v57h-57zM344 686h57v57h-57zM401 686h57v57h-57zM458 686h57v57h-57zM743 686h57v57h-57zM857 686h57v57h-57zM1028 686h57v57h-57zM1199 686h57v57h-57zM1256 686h57v57h-57zM1427 686h57v57h-57zM1484 686h57v57h-57zM1541 686h57v57h-57zM1598 686h57v57h-57zM1712 686h57v57h-57zM173 743h57v57h-57zM230 743h57v57h-57zM287 743h57v57h-57zM344 743h57v57h-57zM515 743h57v57h-57zM572 743h57v57h-57zM629 743h57v57h-57zM743 743h57v57h-57zM914 743h57v57h-57zM971 743h57v57h-57zM1142 743h57v57h-57zM1370 743h57v57h-57zM1484 743h57v57h-57zM1598 743h57v57h-57zM1655 743h57v57h-57zM173 800h57v57h-57zM287 800h57v57h-57zM344 800h57v57h-57zM401 800h57v57h-57zM572 800h57v57h-57zM629 800h57v57h-57zM857 800h57v57h-57zM914 800h57v57h-57zM1085 800h57v57h-57zM1256 800h57v57h-57zM1313 800h57v57h-57zM1370 800h57v57h-57zM1427 800h57v57h-57zM1484 800h57v57h-57zM1541 800h57v57h-57zM1598 800h57v57h-57zM1769 800h57v57h-57zM173 857h57v57h-57zM230 857h57v57h-57zM515 857h57v57h-57zM572 857h57v57h-57zM686 857h57v57h-57zM743 857h57v57h-57zM857 857h57v57h-57zM914 857h57v57h-57zM971 857h57v57h-57zM1028 857h57v57h-57zM1142 857h57v57h-57zM1199 857h57v57h-57zM1313 857h57v57h-57zM1427 857h57v57h-57zM1484 857h57v57h-57zM287 914h57v57h-57zM344 914h57v57h-57zM401 914h57v57h-57zM686 914h57v57h-57zM971 914h57v57h-57zM1199 914h57v57h-57zM1370 914h57v57h-57zM1427 914h57v57h-57zM1484 914h57v57h-57zM1541 914h57v57h-57zM1598 914h57v57h-57zM1712 914h57v57h-57zM173 971h57v57h-57zM230 971h57v57h-57zM401 971h57v57h-57zM458 971h57v57h-57zM515 971h57v57h-57zM572 971h57v57h-57zM629 971h57v57h-57zM743 971h57v57h-57zM800 971h57v57h-57zM857 971h57v57h-57zM914 971h57v57h-57zM971 971h57v57h-57zM1028 971h57v57h-57zM1142 971h57v57h-57zM1199 971h57v57h-57zM1484 971h57v57h-57zM1598 971h57v57h-57zM1655 971h57v57h-57zM1712 971h57v57h-57zM1769 971h57v57h-57zM173 1028h57v57h-57zM401 1028h57v57h-57zM572 1028h57v57h-57zM800 1028h57v57h-57zM971 1028h57v57h-57zM1085 1028h57v57h-57zM1142 1028h57v57h-57zM1199 1028h57v57h-57zM1256 1028h57v57h-57zM1313 1028h57v57h-57zM1370 1028h57v57h-57zM1427 1028h57v57h-57zM1484 1028h57v57h-57zM1541 1028h57v57h-57zM1712 1028h57v57h-57zM1769 1028h57v57h-57zM173 1085h57v57h-57zM287 1085h57v57h-57zM344 1085h57v57h-57zM401 1085h57v57h-57zM515 1085h57v57h-57zM686 1085h57v57h-57zM743 1085h57v57h-57zM800 1085h57v57h-57zM914 1085h57v57h-57zM1028 1085h57v57h-57zM1085 1085h57v57h-57zM1142 1085h57v57h-57zM1370 1085h57v57h-57zM1484 1085h57v57h-57zM173 1142h57v57h-57zM230 1142h57v57h-57zM344 1142h57v57h-57zM401 1142h57v57h-57zM458 1142h57v57h-57zM629 1142h57v57h-57zM857 1142h57v57h-57zM1085 1142h57v57h-57zM1313 1142h57v57h-57zM1370 1142h57v57h-57zM1427 1142h57v57h-57zM1484 1142h57v57h-57zM1541 1142h57v57h-57zM1598 1142h57v57h-57zM1712 1142h57v57h-57zM173 1199h57v57h-57zM458 1199h57v57h-57zM515 1199h57v57h-57zM629 1199h57v57h-57zM686 1199h57v57h-57zM914 1199h57v57h-57zM971 1199h57v57h-57zM1142 1199h57v57h-57zM1256 1199h57v57h-57zM1484 1199h57v57h-57zM1598 1199h57v57h-57zM1655 1199h57v57h-57zM1712 1199h57v57h-57zM1769 1199h57v57h-57zM173 1256h57v57h-57zM287 1256h57v57h-57zM344 1256h57v57h-57zM458 1256h57v57h-57zM572 1256h57v57h-57zM857 1256h57v57h-57zM1085 1256h57v57h-57zM1199 1256h57v57h-57zM1256 1256h57v57h-57zM1313 1256h57v57h-57zM1370 1256h57v57h-57zM1427 1256h57v57h-57zM1484 1256h57v57h-57zM1541 1256h57v57h-57zM1712 1256h57v57h-57zM1769 1256h57v57h-57zM173 1313h57v57h-57zM344 1313h57v57h-57zM401 1313h57v57h-57zM515 1313h57v57h-57zM572 1313h57v57h-57zM629 1313h57v57h-57zM743 1313h57v57h-57zM857 1313h57v57h-57zM971 1313h57v57h-57zM1028 1313h57v57h-57zM1085 1313h57v57h-57zM1142 1313h57v57h-57zM1313 1313h57v57h-57zM1370 1313h57v57h-57zM1427 1313h57v57h-57zM1484 1313h57v57h-57zM1541 1313h57v57h-57zM1598 1313h57v57h-57zM1655 1313h57v57h-57zM1712 1313h57v57h-57zM629 1370h57v57h-57zM686 1370h57v57h-57zM743 1370h57v57h-57zM971 1370h57v57h-57zM1028 1370h57v57h-57zM1085 1370h57v57h-57zM1313 1370h57v57h-57zM1541 1370h57v57h-57zM1712 1370h57v57h-57zM629 1427h57v57h-57zM686 1427h57v57h-57zM800 1427h57v57h-57zM857 1427h57v57h-57zM1142 1427h57v57h-57zM1256 1427h57v57h-57zM1313 1427h57v57h-57zM1427 1427h57v57h-57zM1541 1427h57v57h-57zM1598 1427h57v57h-57zM1655 1427h57v57h-57zM743 1484h57v57h-57zM800 1484h57v57h-57zM1085 1484h57v57h-57zM1142 1484h57v57h-57zM1199 1484h57v57h-57zM1313 1484h57v57h-57zM1541 1484h57v57h-57zM1655 1484h57v57h-57zM1712 1484h57v57h-57zM1769 1484h57v57h-57zM629 1541h57v57h-57zM743 1541h57v57h-57zM800 1541h57v57h-57zM1028 1541h57v57h-57zM1085 1541h57v57h-57zM1142 1541h57v57h-57zM1313 1541h57v57h-57zM1370 1541h57v57h-57zM1427 1541h57v57h-57zM1484 1541h57v57h-57zM1541 1541h57v57h-57zM1655 1541h57v57h-57zM1712 1541h57v57h-57zM1769 1541h57v57h-57zM629 1598h57v57h-57zM686 1598h57v57h-57zM857 1598h57v57h-57zM914 1598h57v57h-57zM1085 1598h57v57h-57zM1313 1598h57v57h-57zM1427 1598h57v57h-57zM1484 1598h57v57h-57zM629 1655h57v57h-57zM686 1655h57v57h-57zM914 1655h57v57h-57zM971 1655h57v57h-57zM1142 1655h57v57h-57zM1256 1655h57v57h-57zM1370 1655h57v57h-57zM1484 1655h57v57h-57zM1655 1655h57v57h-57zM1712 1655h57v57h-57zM629 1712h57v57h-57zM743 1712h57v57h-57zM857 1712h57v57h-57zM914 1712h57v57h-57zM1085 1712h57v57h-57zM1256 1712h57v57h-57zM1598 1712h57v57h-57zM1655 1712h57v57h-57zM1769 1712h57v57h-57zM629 1769h57v57h-57zM857 1769h57v57h-57zM971 1769h57v57h-57zM1028 1769h57v57h-57zM1370 1769h57v57h-57zM1427 1769h57v57h-57zM1541 1769h57v57h-57zM1598 1769h57v57h-57zM1655 1769h57v57h-57z"/><svg x="173" y="173" viewBox="0 0 700 700" width="399" height="399" shape-rendering="auto"><path d="M21.2-.1C9.5-.1-.1 9.5-.1 21.2V678.8c0 11.7 9.5 21.3 21.3 21.3h657.6c11.7 0 21.3-9.5 21.3-21.3V21.2c0-11.7-9.5-21.3-21.3-21.3H21.2zM600 200v387.8c0 6.8-5.5 12.2-12.2 12.2H112.2c-6.8 0-12.2-5.5-12.2-12.2V112.2c0-6.8 5.5-12.2 12.2-12.2h475.6c6.8 0 12.2 5.5 12.2 12.2V200z"/></svg><svg x="173" y="173" viewBox="0 0 700 700" width="399" height="399" shape-rendering="auto"><path d="M500 400V221.2c0-11.7-9.5-21.3-21.3-21.3H221.2c-11.7 0-21.3 9.5-21.3 21.3v257.6c0 11.7 9.5 21.3 21.3 21.3h257.5c11.7 0 21.3-9.5 21.3-21.3V400z"/></svg><svg x="1427" y="173" viewBox="0 0 700 700" width="399" height="399" shape-rendering="auto"><path d="M21.2-.1C9.5-.1-.1 9.5-.1 21.2V678.8c0 11.7 9.5 21.3 21.3 21.3h657.6c11.7 0 21.3-9.5 21.3-21.3V21.2c0-11.7-9.5-21.3-21.3-21.3H21.2zM600 200v387.8c0 6.8-5.5 12.2-12.2 12.2H112.2c-6.8 0-12.2-5.5-12.2-12.2V112.2c0-6.8 5.5-12.2 12.2-12.2h475.6c6.8 0 12.2 5.5 12.2 12.2V200z"/></svg><svg x="1427" y="173" viewBox="0 0 700 700" width="399" height="399" shape-rendering="auto"><path d="M500 400V221.2c0-11.7-9.5-21.3-21.3-21.3H221.2c-11.7 0-21.3 9.5-21.3 21.3v257.6c0 11.7 9.5 21.3 21.3 21.3h257.5c11.7 0 21.3-9.5 21.3-21.3V400z"/></svg><svg x="173" y="1427" viewBox="0 0 700 700" width="399" height="399" shape-rendering="auto"><path d="M21.2-.1C9.5-.1-.1 9.5-.1 21.2V678.8c0 11.7 9.5 21.3 21.3 21.3h657.6c11.7 0 21.3-9.5 21.3-21.3V21.2c0-11.7-9.5-21.3-21.3-21.3H21.2zM600 200v387.8c0 6.8-5.5 12.2-12.2 12.2H112.2c-6.8 0-12.2-5.5-12.2-12.2V112.2c0-6.8 5.5-12.2 12.2-12.2h475.6c6.8 0 12.2 5.5 12.2 12.2V200z"/></svg><svg x="173" y="1427" viewBox="0 0 700 700" width="399" height="399" shape-rendering="auto"><path d="M500 400V221.2c0-11.7-9.5-21.3-21.3-21.3H221.2c-11.7 0-21.3 9.5-21.3 21.3v257.6c0 11.7 9.5 21.3 21.3 21.3h257.5c11.7 0 21.3-9.5 21.3-21.3V400z"/></svg></svg></svg>