<svg xmlns="http://www.w3.org/2000/svg" viewBox="0 0 24 24" id="audi"><path fill="#CFD8DC" d="M4.5 16.5A4.505 4.505 0 0 1 0 12c0-2.481 2.019-4.5 4.5-4.5C6.982 7.5 9 9.519 9 12s-2.018 4.5-4.5 4.5zm0-7.5c-1.654 0-3 1.346-3 3s1.346 3 3 3 3-1.346 3-3-1.346-3-3-3z"></path><path fill="#CFD8DC" d="M9.5 16.5A4.505 4.505 0 0 1 5 12c0-2.481 2.019-4.5 4.5-4.5S14 9.519 14 12s-2.018 4.5-4.5 4.5zm0-7.5c-1.654 0-3 1.346-3 3s1.346 3 3 3 3-1.346 3-3-1.346-3-3-3z"></path><path fill="#CFD8DC" d="M14.5 16.5A4.505 4.505 0 0 1 10 12c0-2.481 2.018-4.5 4.5-4.5 2.481 0 4.5 2.019 4.5 4.5s-2.018 4.5-4.5 4.5zm0-7.5c-1.654 0-3 1.346-3 3s1.346 3 3 3 3-1.346 3-3-1.346-3-3-3z"></path><path fill="#CFD8DC" d="M19.5 16.5A4.505 4.505 0 0 1 15 12c0-2.481 2.018-4.5 4.5-4.5S24 9.519 24 12s-2.018 4.5-4.5 4.5zm0-7.5c-1.654 0-3 1.346-3 3s1.346 3 3 3 3-1.346 3-3-1.346-3-3-3z"></path><path fill="#B4BCC0" d="M1.5 12H0c0 2.481 2.019 4.5 4.5 4.5.924 0 1.785-.28 2.5-.76a4.54 4.54 0 0 1-1.124-1.075c-.412.214-.88.335-1.376.335-1.654 0-3-1.346-3-3zM9 12H7.5c0 .612-.184 1.182-.5 1.657.282.424.669.773 1.124 1.009C8.674 13.919 9 12.997 9 12z"></path><path fill="#B4BCC0" d="M6.5 12H5c0 .997.326 1.919.876 2.665.31.42.69.784 1.124 1.075.716.48 1.576.76 2.5.76.924 0 1.784-.28 2.5-.76a4.54 4.54 0 0 1-1.124-1.075c-.412.214-.88.335-1.376.335-.496 0-.964-.121-1.376-.335A3.014 3.014 0 0 1 7 13.657 2.982 2.982 0 0 1 6.5 12zm7.5 0h-1.5c0 .612-.184 1.182-.5 1.657.282.424.669.773 1.124 1.009.55-.747.876-1.669.876-2.666z"></path><path fill="#B4BCC0" d="M11.5 12H10c0 .997.326 1.919.876 2.665.31.42.69.784 1.124 1.075.715.48 1.576.76 2.5.76.924 0 1.784-.28 2.5-.76a4.54 4.54 0 0 1-1.124-1.075c-.412.214-.88.335-1.376.335-.496 0-.964-.121-1.376-.335A3.016 3.016 0 0 1 12 13.656 2.976 2.976 0 0 1 11.5 12zm7.5 0h-1.5c0 .612-.184 1.182-.5 1.657.282.424.669.773 1.124 1.009.55-.747.876-1.669.876-2.666z"></path><path fill="#B4BCC0" d="M24 12h-1.5c0 1.654-1.346 3-3 3-.496 0-.964-.121-1.376-.335A3.016 3.016 0 0 1 17 13.656a2.982 2.982 0 0 1-.5-1.657H15c0 .997.326 1.919.876 2.665.31.42.69.784 1.124 1.075.715.48 1.576.76 2.5.76A4.503 4.503 0 0 0 24 12z"></path></svg>