<svg xmlns="http://www.w3.org/2000/svg" viewBox="0 0 24 24" id="mercedes-benz"><path fill="#455A64" d="M1.86 17.43 9.96 11 11.47.51h1.06l1.5 10.491 8.11 6.429-.62 1.01L12 14.61l-9.52 3.83-.62-1.01z"></path><path fill="#E6E6E6" d="M12 24C5.383 24 0 18.617 0 12S5.383 0 12 0s12 5.383 12 12-5.383 12-12 12zm0-22C6.486 2 2 6.486 2 12s4.486 10 10 10 10-4.486 10-10S17.514 2 12 2z"></path><path fill="#DEDEDE" d="m12 14.61-8.094 3.256A9.994 9.994 0 0 0 12 22v-7.39zm-.749-12.582C6.086 2.412 2 6.738 2 12c0 1.609.382 3.13 1.06 4.478L9.96 11l1.291-8.972z"></path><path fill="#3C4E57" d="M12 2a9.77 9.77 0 0 0-.749.028L9.96 11l-6.9 5.478c.245.487.528.951.846 1.388L12 14.61V2z"></path><path fill="#C8C8C8" d="M12 0C5.383 0 0 5.383 0 12s5.383 12 12 12v-2a9.994 9.994 0 0 1-8.094-4.134A9.938 9.938 0 0 1 2 12c0-5.262 4.086-9.588 9.251-9.972A9.77 9.77 0 0 1 12 2V0z"></path></svg>