<svg xmlns="http://www.w3.org/2000/svg" viewBox="0 0 24 24" id="toyota"><path fill="#CCC" d="M12 4C5.383 4 0 7.365 0 11.5S5.383 19 12 19s12-3.365 12-7.5C24 7.364 18.617 4 12 4zm2.943 5.324-.021.017c-.306-1.873-.994-3.29-1.859-3.94 6.092.349 7.079 3.035 1.88 3.923zM12 7.144c.655 0 1.22.907 1.479 2.356-.982.075-1.975.075-2.958 0 .259-1.449.823-2.355 1.479-2.356zm-6.264.075c.334-.948 2.528-1.664 5.2-1.817-.866.649-1.553 2.066-1.859 3.94l-.02-.016c-2.279-.391-3.633-1.223-3.321-2.107zm-1.822.787-.002-.008.038-.034c.542 1.863 3.062 2.729 4.97 3.077l-.028.034c-.066 2.11.32 5.249 1.865 6.585-7.471-.563-11.411-5.866-6.843-9.654zM12 15.576c-1.615 0-1.626-4.231-1.643-4.331 1.053.093 2.169.099 3.293 0l-.009.027c0 1.354-.368 4.304-1.641 4.304zm1.244 2.085c1.548-1.337 1.931-4.456 1.865-6.585l-.028-.034c1.916-.35 4.432-1.218 4.97-3.08l.038.035-.001.009c.447.371.872.843 1.105 1.185l-.003-.014c.535.746.835 1.569.835 2.435-.001 3.113-3.834 5.675-8.781 6.049z"></path><path fill="#B2B2B2" d="M10.757 17.661c-7.471-.563-11.411-5.867-6.843-9.654l-.002-.009.038-.034c.542 1.863 3.062 2.729 4.97 3.077l-.028.034c-.066 2.111.32 5.25 1.865 6.586zm-1.68-8.32-.02-.016c-2.278-.391-3.632-1.222-3.32-2.106.334-.948 2.528-1.664 5.2-1.817-.867.649-1.554 2.066-1.86 3.939zM12 4C5.383 4 0 7.365 0 11.5S5.383 19 12 19v-3.424c-1.615 0-1.626-4.231-1.643-4.331a18.77 18.77 0 0 0 1.643.072v-1.76c-.494 0-.988-.019-1.479-.056.259-1.45.823-2.356 1.479-2.357V4z"></path></svg>