<svg xmlns="http://www.w3.org/2000/svg" viewBox="0 0 24 24" id="volkswagen"><path fill="#19459D" d="M12.005 24C18.631 24 24 18.631 24 12.005 24 5.369 18.631 0 12.005 0 5.379 0 0 5.369 0 12.005 0 18.631 5.379 24 12.005 24z"></path><path fill="#FFF" d="M18.42 20.639a10.738 10.738 0 0 0 4.343-8.634c0-3.54-1.712-6.679-4.343-8.645a10.741 10.741 0 0 0-12.83.001 10.773 10.773 0 0 0-4.343 8.645c0 3.54 1.712 6.679 4.343 8.634a10.74 10.74 0 0 0 6.415 2.124c2.399 0 4.619-.793 6.415-2.125z"></path><path fill="#19459D" d="M3.424 9.247a8.827 8.827 0 0 0-.433 2.758c0 2.463.993 4.703 2.599 6.331a9.42 9.42 0 0 0 2.6 1.839l-2.6-5.96-2.166-4.968zm15.873-2.536a8.236 8.236 0 0 0-.877-1.036 8.668 8.668 0 0 0-1.85-1.437l-3.128 7.281h-2.874L7.439 4.238A8.713 8.713 0 0 0 5.59 5.675a8.236 8.236 0 0 0-.877 1.036L5.59 8.74l3.308 7.598 1.712-3.9h2.79l1.712 3.9L18.42 8.74l.877-2.029zm1.289 2.536-2.166 4.967-2.601 5.96a9.42 9.42 0 0 0 2.6-1.839 8.99 8.99 0 0 0 2.6-6.33c0-.961-.148-1.891-.433-2.758z"></path><path fill="#19459D" d="M9.49 20.649a8.945 8.945 0 0 0 2.515.359c.877 0 1.722-.126 2.515-.359l-2.515-5.738-2.515 5.738zm5.104-17.278a8.71 8.71 0 0 0-2.589-.38 8.79 8.79 0 0 0-2.589.38l2.589 5.897 2.589-5.897z"></path><path fill="#163C89" d="M12 0C5.376.003 0 5.371 0 12.005 0 18.629 5.376 23.997 12 24v-1.236a10.74 10.74 0 0 1-6.41-2.124 10.738 10.738 0 0 1-4.343-8.634c0-3.541 1.712-6.679 4.343-8.645A10.742 10.742 0 0 1 12 1.236V0z"></path><path fill="#DEDEDE" d="M8.19 20.175a9.42 9.42 0 0 1-2.6-1.839 8.995 8.995 0 0 1-2.599-6.331c0-.961.148-1.891.433-2.758l2.166 4.968 2.6 5.96zM12 1.236a10.742 10.742 0 0 0-6.41 2.125 10.773 10.773 0 0 0-4.343 8.645c0 3.54 1.712 6.679 4.343 8.634A10.74 10.74 0 0 0 12 22.764v-1.756a8.915 8.915 0 0 1-2.51-.359L12 14.922v-2.484h-1.39l-1.712 3.9L5.59 8.74l-.877-2.029c.264-.37.56-.719.877-1.036a8.713 8.713 0 0 1 1.849-1.437l3.128 7.281H12V9.257L9.416 3.371A8.829 8.829 0 0 1 12 2.991V1.236z"></path><path fill="#163C89" d="M3.424 9.247a8.827 8.827 0 0 0-.433 2.758c0 2.463.993 4.703 2.599 6.331a9.42 9.42 0 0 0 2.6 1.839l-2.6-5.96-2.166-4.968zm4.015-5.009A8.713 8.713 0 0 0 5.59 5.675a8.236 8.236 0 0 0-.877 1.036L5.59 8.74l3.308 7.598 1.712-3.9H12v-.919h-1.433L7.439 4.238zM12 14.922l-2.51 5.727a8.988 8.988 0 0 0 2.51.359v-6.086zm0-11.931c-.896 0-1.761.128-2.584.38L12 9.257V2.991z"></path></svg>