<svg xmlns="http://www.w3.org/2000/svg" viewBox="0 0 368.01 512" id="lari"><path d="M284.44,238.93a22.75,22.75,0,0,0,22.76-22.75v-113A181.18,181.18,0,0,1,336.14,113a22.75,22.75,0,1,0,18.22-41.7A225.1,225.1,0,0,0,307.2,56.57V22.76a22.76,22.76,0,1,0-45.51,0v29.6a227.45,227.45,0,0,0-34.14,2.8V22.76a22.76,22.76,0,1,0-45.51,0v44.6C96.6,100.15,35.78,183.05,35.78,279.89c0,60.94,23.58,118.8,66.41,162.94a234.62,234.62,0,0,0,26.69,23.66H22.76a22.76,22.76,0,1,0,0,45.51H341.33a22.76,22.76,0,1,0,0-45.51h-78c-98.67,0-182-85.45-182-186.6,0-71.17,41.08-132.9,100.75-162.81v99.1a22.76,22.76,0,0,0,45.51,0V101.4a182,182,0,0,1,34.14-3.51V216.18A22.75,22.75,0,0,0,284.44,238.93Z" data-name="Layer 2"></path></svg>