<?xml version="1.0" encoding="UTF-8"?>
<svg id="uuid-e56f203e-93c6-480d-b91b-694977ee2497" xmlns="http://www.w3.org/2000/svg" viewBox="0 0 1007.83 432.93">
    <defs>
        <style>
            .uuid-5767d60d-b7f1-4884-9d17-0d362b07c6d8,.uuid-6d050550-bfa0-4858-86b4-fa57802138a7{stroke:#f65c64;stroke-miterlimit:10;}.uuid-5767d60d-b7f1-4884-9d17-0d362b07c6d8,.uuid-6d050550-bfa0-4858-86b4-fa57802138a7,.uuid-ee5268f4-c246-4e69-852c-f8bd5dfb4adc,.uuid-779feed2-11e7-4062-9c5e-8839c4aeb124{fill:none;}.uuid-6d050550-bfa0-4858-86b4-fa57802138a7{stroke-width:1.2px;}.uuid-ee5268f4-c246-4e69-852c-f8bd5dfb4adc{stroke-dasharray:0
            0 0 0 0 0 4
            6;}.uuid-ee5268f4-c246-4e69-852c-f8bd5dfb4adc,.uuid-779feed2-11e7-4062-9c5e-8839c4aeb124{stroke:#3b3933;stroke-linecap:round;stroke-linejoin:round;stroke-width:3px;}.uuid-72f2ec1f-c612-4190-a0c5-2e80812e54b4{fill:#f65c64;}
        </style>
    </defs>
    <g id="uuid-c5b865f4-1781-427e-857b-5d500d3df096">
        <path class="uuid-779feed2-11e7-4062-9c5e-8839c4aeb124" d="m1006.3,3.5c.02-.67.03-1.33.03-2"/>
        <path class="uuid-ee5268f4-c246-4e69-852c-f8bd5dfb4adc"
              d="m61.26,354.02c42.91,70.07,140.41,99.37,213.85,59.27,82.55-45.07,115.8-156.36,202.9-191.86,58.79-23.96,125.17-6.25,188.65-5.39,43.3.59,89.03-8.06,121.54-36.65,32.52-28.59,46.3-81.19,21.46-116.65-24.84-35.46-90.64-33.64-105.25,7.12-9.17,25.57,4.46,55.54,27.04,70.64,94.7,63.35,266.12-16.16,274.56-131.01"/>
        <path class="uuid-779feed2-11e7-4062-9c5e-8839c4aeb124" d="m58.71,349.71c.33.58.66,1.15,1,1.73"/>
        <path class="uuid-72f2ec1f-c612-4190-a0c5-2e80812e54b4"
              d="m555.75,313.3c.33-.37.61-.66.86-.97.61-.74,1.19-1.51,1.81-2.24.55-.65,1.12-1.28,1.73-1.87,1.03-.99,2.19-1.15,3.45-.44.9.51,1.83.97,2.72,1.49,3.1,1.8,6.19,3.61,9.27,5.44,2.16,1.29,4.3,2.61,6.46,3.89.84.5,1.25,1.21,1.3,2.17.03.68-.08,1.33-.39,1.93-.19.36-.39.72-.61,1.06-.49.74-1.01,1.46-1.5,2.2-.36.55-.74,1.1-.95,1.77.19.18.36.38.56.53,1.58,1.16,3.17,2.31,4.74,3.47,2.23,1.65,4.46,3.29,6.66,4.97.82.62,1.58,1.33,2.34,2.03.62.57.97,1.29,1.08,2.13.06.46-.03.89-.38,1.22-.33.31-.71.39-1.13.22-.38-.15-.62-.43-.52-.87.16-.74-.19-1.2-.69-1.62-.96-.8-1.93-1.61-2.9-2.4-.14-.11-.31-.17-.47-.26-.42.19-.61.56-.77.93-.73,1.7-.94,3.41.09,5.09.67,1.11,1.37,2.19,2.07,3.28.09.14.23.26.37.41.4-.31.62-.7.85-1.07.23-.37.45-.76.71-1.12.28-.38.72-.5,1.07-.33.38.18.55.68.37,1.15-.1.24-.23.47-.36.69-.9,1.53-1.81,3.04-2.7,4.58-2.9,5.02-5.79,10.05-8.68,15.08-1.16,2.02-2.36,4.01-3.77,5.87-1.12,1.48-2.51,2.6-4.35,3.06-.91.23-1.82.31-2.75.28-1.15-.03-2.27-.23-3.39-.48-.24-.05-.49-.09-.79-.14-.09.37-.17.68-.25,1-.16.69-.37,1.35-.73,1.97-.69,1.19-2.19,1.97-3.55,1.81-.93-.11-1.45-.7-1.45-1.64,0-.29.04-.59.1-.88.18-.95.45-1.87.92-2.72.23-.41.48-.83.48-1.29-.09-.09-.13-.16-.19-.19-2.29-1.13-4.49-2.41-6.66-3.75-3.58-2.21-7.17-4.4-10.76-6.61-1.1-.68-2.19-1.37-3.27-2.08-2.72-1.79-5.42-3.6-8.13-5.39-3.37-2.21-6.67-4.5-9.72-7.15-.16-.14-.32-.31-.64-.23-.43.63-.89,1.29-1.34,1.96-.69,1.03-1.69,1.4-2.87,1.33-1.03-.06-1.69-.82-1.63-1.85.02-.29.1-.58.19-.86.31-.91.74-1.77,1.26-2.58.28-.44.55-.87.84-1.34-.18-.26-.34-.5-.51-.74-.47-.65-.7-1.38-.69-2.18,0-.48.01-.97.12-1.43.26-1.12.51-2.24.87-3.32.97-2.91,2.23-5.7,3.58-8.46,1.62-3.29,3.45-6.46,5.46-9.51,1.87-2.84,3.89-5.57,5.86-8.34.41-.57.87-1.11,1.35-1.62,1.11-1.19,2.5-1.69,4.11-1.48.69.09,1.38.23,2.05.43,2.17.65,4.23,1.56,6.28,2.49,2.29,1.03,4.53,2.16,6.8,3.24.2.09.4.17.7.3v-.02Zm-20.62,39.93c1.76,1.46,14.73,9.76,16.13,10.32.62-.42.97-1.09,1.42-1.66,1.84-2.36,3.68-4.72,5.44-7.13,1.5-2.05,2.94-4.16,4.32-6.3,2.13-3.32,4.21-6.68,6.27-10.05,1.23-2.02,2.38-4.08,3.58-6.12.79-1.33,1.6-2.66,2.39-3.99.23-.37.48-.73.59-1.23-1.35-1.1-2.86-1.95-4.3-2.89-1.49-.97-3.01-1.87-4.54-2.77-1.5-.89-3.01-1.74-4.52-2.59-1.51-.85-3.04-1.66-4.61-2.51-1.38,2.39-2.69,4.74-4.06,7.05-1.64,2.77-3.32,5.51-4.97,8.26-.95,1.59-1.87,3.19-2.82,4.77-1.92,3.19-3.87,6.37-5.8,9.56-1.07,1.77-2.1,3.56-3.17,5.33-.4.66-.87,1.27-1.35,1.96h0Zm52.5-17.3c-1.08-.84-2.1-1.61-3.23-2.35-.2.29-.39.51-.52.76-1.83,3.42-3.96,6.66-6.1,9.9-1.67,2.53-3.35,5.04-5.05,7.55-2.07,3.05-4.16,6.1-6.24,9.15-1.54,2.26-3.07,4.52-4.61,6.78-.34.51-.69,1.03-1.03,1.53,1.09,1.02,5.22,2.9,7,3.2.36-.42.74-.87,1.11-1.32,1.03-1.28,2.32-2.15,3.89-2.62,1.31-.4,2.62-.41,3.91.09.37.15.76.27,1.17.41.35-.32.59-.68.81-1.06.81-1.37,1.63-2.73,2.42-4.11,2.37-4.09,4.73-8.19,7.09-12.29.3-.51.62-1.01.92-1.52.24-.41.46-.83.68-1.22-.76-1.17-1.49-2.27-2.2-3.39-.34-.53-.65-1.07-.96-1.62-.96-1.72-.99-3.52-.39-5.36.23-.71.51-1.39,1.01-1.96.12-.13.18-.31.32-.56h0Zm-39.43-24.02c-.55.86-1.06,1.63-1.53,2.42-3.14,5.31-6.18,10.68-9.19,16.06-2.22,3.96-4.54,7.87-6.84,11.79-.88,1.5-1.82,2.96-2.73,4.44-.21.35-.44.68-.52,1.06.86.96,5.05,3.99,6.23,4.5.66-1.09,1.34-2.18,2.01-3.28,1.64-2.68,3.29-5.35,4.91-8.04,2.93-4.88,5.85-9.76,8.77-14.64.98-1.65,1.96-3.3,2.95-4.95,1.12-1.86,2.2-3.75,3.58-5.53-.14-.13-.24-.29-.39-.36-2.18-1.09-4.36-2.17-6.55-3.25-.19-.1-.41-.14-.72-.23h.02Zm-26.18,23.24c.27.19.47.34.68.48.55.38,1.01.85,1.39,1.41,1.31,1.94,1.21,4.14-.28,5.94-.28.34-.57.66-.89,1.02.86.93,1.82,1.65,2.79,2.43.19-.26.34-.43.45-.61,1.65-2.71,3.32-5.41,4.95-8.13,1.01-1.68,1.97-3.39,2.93-5.09,1.85-3.28,3.67-6.57,5.53-9.85,1.46-2.57,2.92-5.13,4.43-7.67.67-1.14,1.46-2.22,2.19-3.33.1-.15.2-.3.29-.45-.41-.47-1.51-.98-2.81-1.31-.14.17-.3.35-.46.54-.56.63-1.06,1.33-1.69,1.89-1.82,1.63-3.98,1.86-6.15.74-.16-.08-.33-.15-.55-.26-.21.22-.44.4-.6.63-1.55,2.25-3.1,4.49-4.62,6.76-1.71,2.54-3.17,5.24-4.56,7.97-1.12,2.2-2.17,4.44-3.03,6.89h.01Zm60.8-2.76c-1.87-1.46-3.84-2.88-5.89-4.27-.18.23-.33.39-.43.57-1.76,3.07-3.48,6.17-5.28,9.23-1.63,2.77-3.3,5.51-5.01,8.23-1.95,3.09-3.91,6.18-6.08,9.12-1.93,2.61-3.94,5.17-5.91,7.75-.25.32-.49.65-.74.97-.19.25-.29.51-.26.82.71.57,4.97,3.14,5.83,3.5.19-.23.43-.46.61-.72,1.52-2.22,3.03-4.45,4.55-6.68,1-1.46,2.01-2.92,3.01-4.38,1.2-1.77,2.4-3.55,3.6-5.32,1.28-1.89,2.57-3.79,3.84-5.69,1.19-1.78,2.38-3.57,3.53-5.37,1.41-2.2,2.79-4.44,4.18-6.66.19-.31.43-.61.44-1.1h.01Zm-5.14-10.1c-.2-.63-.58-1-.95-1.34-.7-.65-1.44-1.26-2.19-1.85-1.72-1.34-3.6-2.44-5.56-3.4-1.46-.71-2.89-1.47-4.34-2.2-.56-.28-1.14-.52-1.71-.78-.3-.14-.57-.09-.83.1-.03.02-.06.04-.09.06-.83.73-1.58,1.53-2.27,2.37.21.42.6.5.91.68,3.1,1.79,6.22,3.54,9.3,5.36,1.52.9,2.98,1.91,4.47,2.86.37.24.7.55,1.22.63.74-.74,1.31-1.65,2.04-2.47v-.02Zm-.6,3.56c.46.37.79.64,1.2.75.1-.07.18-.09.21-.15.84-1.39,1.69-2.77,2.52-4.17.18-.31.31-.67.39-1.02.11-.47-.04-.84-.5-1.11-1.97-1.17-3.91-2.38-5.87-3.56-2.91-1.75-5.83-3.48-8.76-5.2-1.02-.6-2.06-1.15-3.1-1.72-.19-.11-.41-.17-.61-.27-.43-.21-.79-.09-1.12.2-.19.18-.4.34-.56.54-1.03,1.25-2.06,2.5-3.09,3.76-.06.08-.06.2-.13.43.25-.14.42-.2.54-.32.47-.47.91-.96,1.38-1.43.39-.39.78-.79,1.2-1.15.94-.81,1.97-.95,3.09-.4,1.2.59,2.39,1.16,3.58,1.76,1.28.65,2.57,1.3,3.84,1.98,2.26,1.21,4.38,2.61,6.27,4.34.51.47.97,1.01,1.42,1.54.21.25.39.54.53.84.3.62.25,1.22-.2,1.76-.43.51-.89,1-1.32,1.5-.29.33-.56.68-.9,1.1h-.01Zm-.33,44.69c-2.19-1.12-4.95-.17-6.68,2.37,2.81.71,5.77-.35,6.68-2.37Zm-40.75-59.34c.71.67,1.51.81,2.38.7,1.24-.16,2.78-1.34,3.39-2.57-.88-.51-2.17-.76-3.04-.58-.25.05-.51.13-.72.26-.86.53-1.5,1.27-2,2.2h-.01Zm-14.58,31.35c2.18-1.37,2.26-4.01.11-5.55-.09.09-.23.17-.27.29-.39,1.11-.71,2.24-.76,3.42-.04.91.14,1.24.91,1.83h.01Zm41.78,34.59c.83,0,1.33-.34,1.58-.95.28-.68.46-1.39.66-2.1.05-.2-.05-.36-.24-.45-.21-.1-.42-.13-.62.03-.08.07-.16.16-.21.25-.54.97-1.02,1.96-1.17,3.22h0Zm-41.17-31.28c-.27-.22-.49-.4-.7-.57-.74.75-1.54,2.2-1.75,3.14.15.2.32.12.48.04.13-.06.26-.15.35-.26.56-.71,1.15-1.41,1.63-2.34h0Z"/>
        <path class="uuid-72f2ec1f-c612-4190-a0c5-2e80812e54b4"
              d="m552.38,344.32c-.73,1.34-1.82,2.04-3.24,2.16-3.03.25-5.68-2.41-5.4-5.45.13-1.42.87-2.4,2.21-2.89.51-.19,1.06-.29,1.6-.41,2.16-.46,4.21.65,4.92,2.74.21.61.3,1.29.36,1.94.06.71-.13,1.39-.45,1.91h0Zm-3.21.24c.94-.14,1.62-.8,1.72-1.75.1-1.07-.12-2.07-.96-2.82-.42-.39-.89-.64-1.51-.39-.29.11-.65.06-.98.1-1.56.21-2.09,1.01-1.72,2.55.21.89.74,1.51,1.54,1.92.59.36,1.23.49,1.91.39Z"/>
        <path class="uuid-72f2ec1f-c612-4190-a0c5-2e80812e54b4"
              d="m566.24,326.01c.16.2.43.5.64.84,1.1,1.75,2.18,3.52,3.29,5.26.32.5.38,1.01.32,1.58-.04.33-.2.54-.49.68-.5.23-1.01.45-1.5.7-.62.32-1.24.4-1.93.34-.5-.04-.81-.25-1.08-.64-.57-.82-1.18-1.61-1.76-2.42-.71-.99-1.41-1.98-2.1-2.99-.43-.62-.36-1.08.25-1.52.87-.63,1.76-1.22,2.64-1.83.51-.35,1.03-.35,1.71,0h0Zm-1.09,1.8c-.56.21-.96.64-1.4,1,.28.7,2.26,3.75,3.18,4.88.24-.07.52-.12.79-.22.27-.1.53-.24.85-.38-.05-.16-.06-.3-.13-.41-1.01-1.54-2.03-3.08-3.05-4.61-.06-.1-.15-.17-.24-.27h0Z"/>
        <path class="uuid-72f2ec1f-c612-4190-a0c5-2e80812e54b4"
              d="m573.28,359.15c-1.05-.58-1.15-.78-.96-1.72.15-.72.32-1.44.48-2.16.06-.25.12-.5.21-.74.14-.36.38-.6.78-.71.65-.18,1.26-.25,1.94-.03,1.22.38,2.42.9,3.74.96.16,0,.38.13.46.27.32.53.7,1.05.57,1.74-.12.68-.2,1.38-.34,2.07-.14.74-.63,1.18-1.37,1.24-.58.04-1.18.02-1.76-.07-1.02-.16-2.03-.38-3.04-.6-.32-.07-.63-.21-.71-.24h0Zm5.1-.95c.25-.59.39-1.1.34-1.72-1.37-.33-2.71-.66-4.12-1-.24.64-.31,1.24-.34,1.89.6.42,1.32.38,1.98.54.67.16,1.35.32,2.14.29h0Z"/>
        <path class="uuid-72f2ec1f-c612-4190-a0c5-2e80812e54b4"
              d="m638.29,169.7c.01.13.02.24.02.35-.04.58-.47.83-1,.57-.17-.08-.34-.2-.49-.32-.86-.68-1.72-1.36-2.55-2.07-3.94-3.39-8-6.63-12.18-9.72-.57-.42-1.17-.65-1.87-.68-.64-.02-1.29-.05-1.93-.13-2.96-.35-5.94-.25-8.92-.23-1.97,0-3.93.02-5.9.05-.58.01-1.1-.13-1.58-.47-.64-.45-1.3-.88-1.94-1.34-3.36-2.41-6.75-4.76-10.31-6.86-.77-.45-1.53-.95-2.29-1.42-.27-.16-.54-.34-.59-.67-.05-.27-.19-.44-.39-.61-.32-.27-.35-.55-.17-.9.05-.1.12-.19.19-.28.57-.73,1.14-1.46,1.7-2.2,1.39-1.84,2.8-3.66,4.15-5.53,3.13-4.32,6.26-8.64,9.6-12.81,2.83-3.53,5.67-7.05,8.78-10.34.17-.19.3-.39.4-.63.24-.55.95-.77,1.39-.37.59.54,1.32.86,1.98,1.27,1.62,1.01,3.28,1.96,4.88,3,2.65,1.74,5.29,3.5,7.84,5.4.43.32.86.44,1.41.36,1.97-.29,3.96-.5,5.93-.79,4.67-.67,9.38-1.12,13.98-2.23.41-.1.79-.02,1.13.2.21.13.41.29.6.46,1.42,1.24,2.83,2.49,4.26,3.71,2.38,2.02,4.77,4.02,7.15,6.03.23.19.45.26.75.28.44.03.66.33.59.75-.04.25-.13.49-.25.71-.45.81-.89,1.63-1.39,2.41-1,1.57-2.03,3.1-3.04,4.66-2.79,4.32-5.57,8.64-8.36,12.96-3.49,5.4-6.98,10.8-10.48,16.2-.31.47-.57.97-1.1,1.26v-.03Zm9.37-21.83c-.58-.36-.9-.64-1.12-1.04-.11-.19-.18-.42-.19-.63-.02-.27.12-.49.39-.59.25-.09.47-.03.67.21s.36.5.55.75c.08.11.17.21.24.29h.13s.05-.03.06-.05c2.87-4.36,5.75-8.72,8.63-13.08.07-.1.12-.2.16-.3.02-.05.02-.11.02-.17-.03-.05-.04-.12-.08-.15-3.44-2.58-6.89-5.15-10.33-7.72-.04-.04-.11-.03-.16-.04-.45.36-2.26,2.64-2.72,3.44.1.1.23.2.32.33.15.2.3.4.4.63.11.25-.01.51-.23.66-.23.15-.5.17-.71,0-.22-.18-.41-.37-.66-.6-1.93,2.42-3.74,4.85-5.57,7.26-.08.11-.12.24-.2.4.24.11.44.19.64.29.12.06.25.13.35.22.2.17.26.46.16.69-.1.23-.34.39-.61.36-.17-.02-.34-.07-.49-.13-.28-.12-.55-.26-.88-.42-.75.85-1.4,1.8-2.1,2.7-.71.91-1.39,1.83-2.09,2.75-.68.89-1.37,1.78-2.04,2.68-.68.92-1.42,1.8-2.06,2.79.18.14.33.26.48.38.11.09.22.19.3.3.18.24.16.57-.03.78-.16.18-.47.26-.7.14-.27-.14-.53-.32-.84-.51-.66.68-1.17,1.48-1.73,2.24s-1.18,1.49-1.68,2.34c.18.15.32.27.48.38,2.5,1.68,5,3.35,7.49,5.03,1.47.99,2.86,2.08,4.21,3.23.21.18.43.35.61.5.26-.01.32-.18.41-.32,1.55-2.34,3.09-4.68,4.64-7.03,1.86-2.81,3.71-5.63,5.56-8.45.12-.18.21-.38.31-.57v.03Zm-41.28,5.26c.71.14,6.51.24,7.83.15.07-.1.15-.25.26-.37.35-.39.74-.37,1.05.06.08.11.14.24.19.34,2.47.13,4.91.26,7.41.4.86-1.15,1.73-2.32,2.61-3.51-.19-.35-.54-.51-.8-.75-.32-.3-.42-.63-.24-.88.21-.29.63-.37.98-.17.14.08.27.2.39.31.13.11.23.24.39.4.14-.14.26-.25.35-.37,2.6-3.42,5.19-6.85,7.79-10.27.08-.11.15-.23.22-.33-.13-.18-.28-.07-.4-.1-.22-.06-.44-.11-.63-.21-.23-.12-.32-.43-.26-.66s.29-.42.56-.44c.39-.03.72.09.91.46.07.12.09.26.16.49,1.12-1.36,2.09-2.73,3.11-4.05,1.04-1.33,2.05-2.68,3.08-4.01,1.03-1.33,2.06-2.65,3.06-3.94-.06-.23-.19-.19-.29-.18-2.45.34-4.89.7-7.34,1.05-.1.01-.2.07-.35.12.08.13.14.21.19.3.17.32.11.61-.13.85-.23.23-.5.45-.78.63-.3.19-.65.11-.84-.13s-.19-.59.05-.84c.19-.21.41-.38.62-.56-.07-.26-.27-.15-.41-.13-2.26.32-4.51.65-6.76.97-.81.11-1.61.25-2.42.34-.42.04-.71.22-.97.56-1.68,2.21-3.42,4.38-5.07,6.62-4.08,5.54-8.3,10.98-12.52,16.41-.28.35-.56.7-.83,1.06-.08.1-.12.23-.19.36l.02.02Zm-13.27-8.54c.07.07.13.16.22.23,3.63,2.79,7.25,5.57,10.92,8.39.11-.1.25-.19.35-.31,4.45-5.75,8.96-11.45,13.26-17.32,1.13-1.54,2.29-3.06,3.43-4.59.15-.19.27-.4.43-.64-.21-.13-.38-.22-.53-.34-.28-.23-.34-.55-.18-.83.15-.26.5-.39.81-.26.22.1.43.26.64.39.47-.38.91-.91,1.34-1.64-.1-.11-.2-.24-.33-.33-3.57-2.54-7.14-5.07-10.72-7.6-.18-.13-.38-.21-.56-.3-.61.62-18.73,24.5-19.08,25.14h0Zm31.72-18.1c.65-.74,1.25-1.43,1.88-2.15-.47-.52-1.03-.84-1.55-1.21-4.57-3.28-11.72-7.83-13.24-8.43-.15.16-.34.33-.5.52-4.09,4.71-8.11,9.47-11.84,14.47-2.29,3.06-4.51,6.17-6.78,9.24-1.22,1.65-2.47,3.28-3.71,4.91-.44.58-.88,1.16-1.32,1.74-.05.06-.07.15-.12.28.32.22.63.45.96.66,2.1,1.31,4.22,2.57,6.28,3.94,2.32,1.54,4.57,3.17,6.85,4.76.25.17.51.33.78.51.31-.46.6-.89.91-1.36-.16-.14-.29-.29-.44-.4-3.51-2.67-7.03-5.33-10.54-7.99-.29-.22-.58-.44-.87-.66-.31-.25-.39-.62-.18-.97.11-.2.25-.37.39-.55,6.37-8.39,12.73-16.77,19.1-25.16.22-.29.43-.57.78-.74.39-.19.74-.18,1.1.08,1,.73,2.01,1.44,3.02,2.15,2.84,2.01,5.68,4.03,8.52,6.04.13.09.28.17.52.31h0Zm36.4,5.43c-4.15-3.26-8.13-6.63-12.06-10.1-.44.28-.61.71-.87,1.06-.25.33-.48.69-.71,1.01-.02.27.15.37.31.49,1.36,1.03,2.72,2.07,4.09,3.1,2.02,1.53,4.1,2.97,6.03,4.6.19.16.42.29.62.44.34.25.43.6.24.96-.12.22-.27.43-.41.64-2.44,3.71-4.88,7.41-7.32,11.12-2.47,3.76-4.94,7.51-7.41,11.26-1.93,2.94-3.86,5.87-5.79,8.8-.1.16-.22.33-.35.47-.26.28-.57.32-.91.12-.14-.09-.27-.21-.4-.31-1.72-1.31-3.41-2.66-5.18-3.9-2.55-1.78-5.17-3.48-7.76-5.21-.09-.06-.2-.08-.34-.14-.17.18-.33.36-.51.55.04.08.06.17.12.22.26.21.52.42.79.62,3.98,2.93,7.84,6.02,11.58,9.25.59.51,1.17,1.04,1.76,1.56.16.15.34.27.55.43,8.05-12.17,15.78-24.48,23.76-36.64.06-.09.09-.2.17-.4h0Zm-14.09-10.03c-6.3,1.11-12.65,1.86-19,2.72-.35.64-.97,1.08-1.3,1.76.28.17.53.05.76.02,4.55-.65,9.11-1.3,13.66-1.96,1.33-.2,2.66-.4,4-.57.45-.06.77-.23,1.03-.61.27-.42.6-.8.91-1.19l-.07-.16h.01Zm-42.08,32.83c-.32.38-.68.76-.92,1.3.21.03.34.06.47.06,1.09,0,2.19.01,3.28,0,2.14-.02,4.27-.07,6.4-.07,1,0,2.01.08,3.02.15,1.31.09,2.62.21,3.9.31.24-.1.14-.31.21-.45.08-.15.17-.29.24-.44.1-.2.02-.38-.1-.54-1.26-.21-15.1-.49-16.5-.33h0Z"/>
        <path class="uuid-72f2ec1f-c612-4190-a0c5-2e80812e54b4"
              d="m644.14,136.98c.19-.27.35-.49.5-.72.17-.25.32-.51.47-.74-.15-.27-.28-.48-.39-.71-.09-.18-.16-.36-.21-.55-.07-.32.09-.63.38-.76.24-.11.54-.01.74.24.04.04.07.09.09.14.11.26.23.51.33.77.11.29-.15.55-.11.81s.29.49.19.79c-.01.05-.03.11-.05.16-.29.63-.64,1.19-1.43,1.1-.2.32-.36.62-.56.88-.17.23-.41.37-.71.39-.24.01-.43-.07-.57-.28-.13-.21-.16-.46,0-.63.38-.42.68-1,1.36-.91l-.03.02Z"/>
        <path class="uuid-72f2ec1f-c612-4190-a0c5-2e80812e54b4"
              d="m644.69,131.72c.12-.2.19-.36.3-.48.17-.17.38-.23.62-.15.24.08.43.26.4.49-.05.46-.12.95-.29,1.38s-.77.41-1.01,0c-.07-.11-.12-.26-.12-.39,0-.31.07-.61.1-.86h0Z"/>
        <path class="uuid-72f2ec1f-c612-4190-a0c5-2e80812e54b4"
              d="m639.67,148.17c.1-.25.12-.33.16-.4.15-.26.44-.39.71-.32s.46.31.44.63c-.01.31-.06.61-.13.91-.07.32-.32.5-.59.49-.31-.01-.6-.24-.62-.57-.02-.3.04-.61.04-.74h0Z"/>
        <path class="uuid-72f2ec1f-c612-4190-a0c5-2e80812e54b4"
              d="m643.17,147.19c-.17.25-.39.48-.62.68-.37.31-.87.1-.97-.37-.11-.57.63-1.32,1.2-1.21.06,0,.11.03.16.05.33.15.45.54.23.85Z"/>
        <path class="uuid-72f2ec1f-c612-4190-a0c5-2e80812e54b4"
              d="m634.87,152.48s.05-.13.11-.18c.28-.25.62-.36.99-.33.4.04.63.54.42.9-.23.4-.83.57-1.24.35-.26-.15-.39-.44-.29-.74h.01Z"/>
        <path class="uuid-72f2ec1f-c612-4190-a0c5-2e80812e54b4"
              d="m640.37,139.43c-.05-.04-.18-.1-.28-.19-.29-.26-.26-.74.07-.93.27-.16.57-.23.88-.16.28.07.47.34.44.63-.05.52-.51.81-1.11.64h0Z"/>
        <path class="uuid-72f2ec1f-c612-4190-a0c5-2e80812e54b4"
              d="m644.6,145.56c.4.14.59.44.54.74-.04.26-.29.48-.6.49-.2,0-.4-.01-.58-.07-.26-.08-.43-.39-.42-.66.01-.26.25-.5.56-.53.19-.02.38.02.49.02h.01Z"/>
        <path class="uuid-72f2ec1f-c612-4190-a0c5-2e80812e54b4"
              d="m632.58,153.03s-.15-.08-.24-.15c-.37-.29-.34-.8.07-1.03.24-.14.48-.12.72-.02.4.17.6.59.43.94-.16.33-.54.44-.98.25h0Z"/>
        <path class="uuid-72f2ec1f-c612-4190-a0c5-2e80812e54b4"
              d="m629.97,151.57c-.13-.23-.04-.52.14-.68.22-.19.53-.22.77-.05.13.1.26.21.36.34.18.23.16.54-.02.77-.17.22-.46.28-.87.09-.08-.09-.26-.26-.38-.47Z"/>
        <path class="uuid-72f2ec1f-c612-4190-a0c5-2e80812e54b4"
              d="m639.41,149.85c.05.08.21.22.25.39.11.46-.35.97-.82.92-.13,0-.27-.09-.36-.18-.23-.22-.23-.55-.03-.83.24-.33.55-.45.95-.29h.01Z"/>
        <path class="uuid-72f2ec1f-c612-4190-a0c5-2e80812e54b4"
              d="m639.27,128.9c.24-.28.98-.47,1.31-.34.38.15.51.7.22.97-.33.3-.73.41-1.16.34-.37-.06-.6-.5-.46-.83.03-.05.05-.1.09-.14Z"/>
        <path class="uuid-72f2ec1f-c612-4190-a0c5-2e80812e54b4"
              d="m629.12,132.15c.28-.08.59.03.73.26.14.22.1.56-.11.77-.24.24-.53.4-.88.43-.46.03-.79-.43-.6-.85.12-.25.47-.51.86-.61Z"/>
        <path class="uuid-72f2ec1f-c612-4190-a0c5-2e80812e54b4"
              d="m630.74,131.07c.12-.18.23-.38.38-.53.16-.16.4-.2.62-.11s.35.27.37.51c.04.4-.29.94-.64,1.09-.39.17-.83-.12-.82-.54,0-.14.05-.27.08-.42h.01Z"/>
        <path class="uuid-72f2ec1f-c612-4190-a0c5-2e80812e54b4"
              d="m616.58,151.92c-.05.11-.08.19-.12.26-.18.31-.48.45-.77.35-.31-.11-.5-.48-.4-.82.07-.2.17-.41.29-.59.14-.21.44-.26.68-.17.24.1.4.33.38.59-.01.14-.04.28-.06.38h0Z"/>
        <path class="uuid-72f2ec1f-c612-4190-a0c5-2e80812e54b4"
              d="m618.89,150c-.15.31-.36.6-.76.66-.24.04-.44-.03-.59-.23-.15-.2-.18-.42-.05-.62.13-.21.3-.4.49-.56.22-.19.53-.15.76.04.19.17.26.43.15.72h0Z"/>
        <path class="uuid-72f2ec1f-c612-4190-a0c5-2e80812e54b4"
              d="m626.32,133.06c-.15-.07-.2-.09-.25-.12-.28-.16-.4-.42-.32-.7.08-.29.31-.46.63-.46.34,0,.61.11.8.39.24.34.03.86-.38.92-.18.03-.38-.03-.47-.03h-.01Z"/>
        <path class="uuid-72f2ec1f-c612-4190-a0c5-2e80812e54b4"
              d="m633.08,129.42c.08-.09.23-.29.42-.44.23-.19.54-.14.76.05.21.19.28.52.11.76-.14.19-.33.37-.53.5-.21.13-.52.05-.69-.13-.17-.17-.2-.39-.08-.74h.01Z"/>
        <path class="uuid-72f2ec1f-c612-4190-a0c5-2e80812e54b4"
              d="m624.99,130.69c.09.09.29.24.44.44.16.2.11.5-.07.7-.16.18-.37.24-.61.18-.29-.07-.5-.25-.64-.51-.12-.22-.09-.5.08-.71.15-.19.43-.25.81-.1h-.01Z"/>
        <path class="uuid-72f2ec1f-c612-4190-a0c5-2e80812e54b4"
              d="m620.72,149.19c-.14.32-.39.49-.71.51-.27.01-.5-.12-.61-.37-.1-.23-.07-.44.09-.63.09-.1.2-.2.31-.28.26-.19.55-.18.78,0,.22.17.27.46.14.76h0Z"/>
        <path class="uuid-72f2ec1f-c612-4190-a0c5-2e80812e54b4"
              d="m622.81,149.08c-.3-.13-.44-.32-.46-.55-.02-.25.09-.43.29-.56.32-.21.72-.17,1,.08.19.18.25.45.16.69-.09.23-.26.38-.5.38-.19.01-.39-.03-.49-.03h0Z"/>
        <path class="uuid-72f2ec1f-c612-4190-a0c5-2e80812e54b4"
              d="m636.93,131.02c.14-.35.62-.58.96-.46.3.11.48.54.34.83-.16.35-.65.55-.98.4-.27-.12-.43-.49-.32-.77h0Z"/>
        <path class="uuid-72f2ec1f-c612-4190-a0c5-2e80812e54b4"
              d="m635.17,132.9c.16-.32.54-.47.85-.32.28.13.43.49.32.78-.14.36-.57.51-.91.33-.29-.16-.4-.49-.26-.79h0Z"/>
        <path class="uuid-72f2ec1f-c612-4190-a0c5-2e80812e54b4"
              d="m634.43,133.98c.31.13.45.46.33.76-.13.33-.49.48-.83.34-.31-.13-.45-.46-.33-.76.13-.34.5-.49.83-.35h0Z"/>
        <path class="uuid-72f2ec1f-c612-4190-a0c5-2e80812e54b4"
              d="m632.28,135.62c.11-.31.5-.49.82-.36.3.12.46.45.36.75-.11.32-.49.49-.82.36-.31-.12-.47-.46-.37-.75h.01Z"/>
        <path class="uuid-72f2ec1f-c612-4190-a0c5-2e80812e54b4"
              d="m599.72,139.02c.09-.21.16-.42.26-.62,1.11-2.16,3.11-3.47,5.62-3.25,2.09.18,3.67,1.2,4.53,3.15.52,1.19.51,2.41-.14,3.57-.25.44-.57.84-.92,1.2-.95.99-2.12,1.64-3.42,2.08-1.7.57-3.46.79-5.46.69-.32-.02-.54-.18-.66-.45-.07-.16-.11-.32-.13-.49-.09-.79-.21-1.57-.24-2.35-.04-1.21.03-2.41.56-3.54h0Zm1.12,5.64c2.09-.24,4.03-.6,5.82-1.57.65-.35,1.21-.82,1.68-1.39.74-.89.86-1.87.42-2.92-.28-.67-.75-1.19-1.36-1.57-2.07-1.28-4.71-.69-5.97,1.52-.46.82-.75,1.69-.81,2.64-.07,1.07.01,2.13.23,3.29h-.01Z"/>
        <path class="uuid-72f2ec1f-c612-4190-a0c5-2e80812e54b4"
              d="m607.16,128.66c-.24-.06-.41-.07-.56-.14-.38-.17-.48-.58-.23-.91.34-.45,1.01-.39,1.23.12.07.14.08.31.12.46.11.02.19.04.27.06.4.1.69.36.89.71.14.24.1.48-.07.7-.16.2-.47.3-.68.16-.44-.28-.98-.5-.98-1.19v.03Z"/>
        <path class="uuid-72f2ec1f-c612-4190-a0c5-2e80812e54b4"
              d="m608.14,130.91c.18-.37.6-.5.88-.3.26.18.45.41.54.72.07.23.02.44-.17.6-.2.17-.5.23-.7.1-.29-.18-.52-.43-.57-.78-.02-.14.01-.28.01-.35h.01Z"/>
        <path class="uuid-72f2ec1f-c612-4190-a0c5-2e80812e54b4"
              d="m618.74,129.38c.16-.33.64-.52,1.08-.43.23.05.4.18.48.41.07.22-.02.53-.22.67-.31.23-.67.28-1.03.18-.32-.09-.47-.51-.32-.82h.01Z"/>
        <path class="uuid-72f2ec1f-c612-4190-a0c5-2e80812e54b4"
              d="m610.51,131.94c.27.14.48.36.58.66.08.23,0,.44-.15.62-.17.18-.4.21-.62.13-.3-.12-.52-.33-.63-.64-.09-.26-.03-.5.17-.69.18-.17.4-.19.65-.09h0Z"/>
        <path class="uuid-72f2ec1f-c612-4190-a0c5-2e80812e54b4"
              d="m612.14,133.69s-.14-.08-.23-.15c-.19-.15-.25-.49-.14-.69.18-.32.6-.45.96-.28.37.17.52.56.34.91-.17.32-.48.4-.93.21h0Z"/>
        <path class="uuid-72f2ec1f-c612-4190-a0c5-2e80812e54b4"
              d="m614.95,132.71c.29.12.45.47.34.77-.14.38-.64.57-1.06.38-.3-.14-.43-.48-.29-.78.16-.35.62-.52,1-.37h0Z"/>
        <path class="uuid-72f2ec1f-c612-4190-a0c5-2e80812e54b4"
              d="m617.28,131.31c.27.13.41.52.29.79-.15.32-.6.5-.93.37s-.48-.53-.31-.84c.17-.32.62-.48.94-.32h.01Z"/>
        <path class="uuid-72f2ec1f-c612-4190-a0c5-2e80812e54b4"
              d="m603.16,139.47c.31-.79.98-1.16,1.9-1.02.86.13,1.12.38,1.33,1.17.27.97-.62,2.12-1.74,2.08s-1.88-1.19-1.48-2.22h-.01Zm1.41.56c.01.06.01.15.05.2.12.12.32.07.4-.09.01-.04.01-.12-.02-.15-.1-.12-.33-.11-.43.03h0Z"/>
        <path class="uuid-72f2ec1f-c612-4190-a0c5-2e80812e54b4"
              d="m266.32,318.99c.14.13.26.24.38.36.53.54,1.08,1.05,1.57,1.62.42.49.78,1.03,1.16,1.55.96,1.3,1.63,2.73,2.03,4.29.43,1.68.56,3.39.46,5.11-.13,2.25-.64,4.42-1.46,6.52-.96,2.45-2.26,4.68-4.12,6.54-3.93,3.94-8.63,5.63-14.17,4.67-2.76-.47-5.36-1.45-7.8-2.84-1.06-.6-2.04-1.3-2.95-2.12-1.47-1.33-2.65-2.89-3.57-4.65-1.51-2.86-2.38-5.88-2.38-9.14,0-2.14.37-4.21,1.24-6.17,1.19-2.69,2.95-4.95,5.19-6.84.37-.31.78-.57,1.06-.97.07-.09.19-.16.29-.23,1.87-1.29,3.91-2.18,6.15-2.57,2.63-.46,5.25-.38,7.86.16.17.03.33.06.5.09.09-.12.15-.23.22-.33.2-.32.38-.65.61-.95.99-1.28,2.3-1.9,3.93-1.81.64.04,1.24.21,1.76.59,1.53,1.1,2.33,2.6,2.43,4.47.04.88-.08,1.75-.38,2.66h0Zm2.26,21.02c1.37-2.79,2.16-5.55,2.28-8.48.04-1.07-.02-2.13-.18-3.19-.33-2.14-1.17-4.05-2.52-5.74-1.14-1.43-2.44-2.7-3.94-3.75-.09-.06-.17-.12-.26-.18-.78-.49-1.56-.98-2.34-1.46-.74-.45-1.53-.78-2.34-1.07-2.74-1-5.57-1.31-8.46-.94-3.42.43-6.43,1.78-8.96,4.14-1.03.96-1.93,2.02-2.72,3.19-1.42,2.1-2.32,4.39-2.54,6.93-.13,1.47-.08,2.93.19,4.38.5,2.7,1.52,5.18,3.06,7.44,1.32,1.94,3.03,3.45,5.07,4.6,2.18,1.23,4.5,2.12,6.96,2.62,5.4,1.09,9.96-.49,13.78-4.36,1.25-1.26,2.21-2.73,2.93-4.13h-.01Zm-3.11-21.66c.16-.37.16-.64.18-.91.08-1.17-.06-2.29-.7-3.31-.29-.47-.63-.89-1.06-1.23-.32-.25-.67-.43-1.07-.49-.92-.14-1.79,0-2.56.55-.51.37-.93.83-1.22,1.4-.04.09-.07.19-.11.31.17.07.31.14.45.2.08-.04.14-.05.19-.09.2-.15.38-.33.59-.47.36-.25.71-.52,1.1-.71,1.14-.57,2.28-.34,3.11.62.85.99,1.12,2.16.95,3.45-.02.13-.07.25-.07.37,0,.08.1.16.21.31h.01Zm-1.19-.96c.04-.14.07-.21.07-.29-.02-.64-.19-1.24-.52-1.78-.13-.21-.3-.4-.48-.57-.4-.37-.87-.46-1.39-.28-.47.17-.87.46-1.34.87,1.35.59,2.5,1.29,3.66,2.05Z"/>
        <path class="uuid-72f2ec1f-c612-4190-a0c5-2e80812e54b4"
              d="m261.56,319.27c.29.17.57.35.86.52.19.12.39.25.6.33.3.1.55.28.78.5.61.6,1.23,1.19,1.84,1.79.83.81,1.49,1.75,2.05,2.76.97,1.76,1.53,3.66,1.92,5.62.05.23.05.46.05.69.01,1.52-.23,3-.66,4.45-.31,1.07-.72,2.1-1.31,3.05-.41.66-.85,1.3-1.34,1.9-1.11,1.37-2.29,2.66-3.71,3.72-1.54,1.15-3.19,2.08-5.07,2.55-.53.14-1.06.24-1.61.25-1.36.03-2.71-.12-4.03-.49-1.46-.4-2.79-1.12-4.09-1.88-1.12-.65-2.18-1.4-3.23-2.16-1.45-1.04-2.8-2.2-3.98-3.54-2.56-2.9-3.41-6.28-2.72-10.04.49-2.63,1.62-5,3.19-7.17,1.49-2.06,3.46-3.43,5.85-4.22,1.1-.36,2.22-.63,3.36-.8,2.11-.32,4.2-.32,6.29.21,1.73.43,3.37,1.1,4.94,1.96h.02Zm-1.15.61c-1.51-.8-3.11-1.34-4.78-1.68-.99-.2-1.98-.29-2.99-.25-1.87.07-3.69.41-5.47,1-2.28.77-4.1,2.13-5.45,4.13-1.27,1.89-2.26,3.92-2.71,6.16-.72,3.55.05,6.73,2.49,9.45,1.06,1.19,2.25,2.24,3.55,3.16.96.68,1.91,1.35,2.9,1.98,1.22.77,2.49,1.47,3.87,1.92,1.41.46,2.86.65,4.33.55,1.04-.07,2.01-.41,2.95-.83,1.6-.72,3.02-1.71,4.28-2.92,1.19-1.15,2.27-2.4,3.17-3.79.8-1.25,1.33-2.61,1.65-4.05.05-.21.07-.42.12-.62.41-1.72.21-3.41-.32-5.07-.87-2.69-2.31-5.05-4.33-7.03-.29-.29-.64-.54-.99-.76-.74-.47-1.5-.9-2.26-1.35h0Z"/>
        <path class="uuid-72f2ec1f-c612-4190-a0c5-2e80812e54b4"
              d="m250.86,328.96c-.04-.26-.1-.52-.11-.79-.09-2.38-.17-4.76-.25-7.14,0-.15,0-.3.03-.44.03-.18.16-.32.34-.32.39.02.81,0,1.08.37.21.29.42.58.6.88.85,1.4,1.64,2.83,2.34,4.3.31.65.66,1.27.98,1.9.13.27.29.5.58.63.22.09.39.27.45.5.07.27.24.48.38.71.69,1.15.81,2.74-.24,3.98-.15.18-.2.36-.17.57.05.37.09.74.17,1.11.46,2.14.94,4.29,1.41,6.43.05.23.1.45.12.68s-.1.41-.31.5c-.21.09-.42.08-.58-.09-.3-.31-.61-.63-.88-.97-.31-.39-.59-.81-.85-1.24-.83-1.38-1.78-2.68-2.73-3.98-.52-.71-1-1.44-1.5-2.16-.2-.29-.33-.58-.28-.89-1.2-1.42-1.36-2.91-.58-4.53h0Zm2.15,4.27c.31.14.72.27,1.16.33.63.09,1.21-.07,1.72-.43.62-.43.85-1.06.83-1.79,0-.47-.17-.9-.4-1.3-.19-.35-.51-.54-.87-.68-.28-.11-.57-.17-.75-.43-.02-.03-.06-.05-.1-.07-.87-.39-2.16-.08-2.74.67-.19.25-.32.53-.36.85-.05.38-.04.75.04,1.12.17.75.61,1.29,1.47,1.72h0Zm1.52-5.55c-.22-.8-2.4-4.98-2.89-5.56-.03.02-.07.05-.07.08.07,1.92.16,3.83.24,5.79.12,0,.21.01.27-.02.7-.33,1.44-.4,2.2-.29h.24s.01,0,.01,0Zm2.35,12.03c-.13-.59-.26-1.17-.38-1.76-.12-.57-.24-1.14-.34-1.72-.11-.59-.18-1.19-.27-1.8-.47.07-.92.19-1.37.19-.45.01-.9-.09-1.41-.15.1.18.17.33.26.46.49.68.99,1.35,1.47,2.03.57.82,1.13,1.65,1.69,2.48.07.1.14.21.21.31l.13-.03h0Z"/>
        <path class="uuid-72f2ec1f-c612-4190-a0c5-2e80812e54b4"
              d="m244.98,327.78c-.05.07-.15.26-.29.41-.66.74-1.63.96-2.63.59-.59-.21-.99-.61-1.2-1.19-.17-.47-.2-.94-.1-1.42.13-.65.5-1.1,1.14-1.28.36-.11.73-.17,1.1-.24.62-.12,1.12.07,1.58.52.73.72.91,1.58.4,2.61h0Zm-.89-.64c.03-.06.09-.2.12-.34.12-.58-.31-1.11-.9-1.08-.37.02-.74.12-1.1.21-.25.06-.39.25-.39.51-.01.21-.02.42.02.62.08.43.34.69.79.77.67.13,1.13-.07,1.45-.69h.01Z"/>
        <path class="uuid-72f2ec1f-c612-4190-a0c5-2e80812e54b4"
              d="m262.19,335.24c.38-.84,1.52-1.34,2.34-1.26.2.02.4.11.57.22.22.14.42.33.63.5.96.78.82,2.34.13,2.97-.63.57-1.35.82-2.19.63-1.44-.33-2.14-1.78-1.49-3.06h0Zm2.56.15s-.14-.05-.19-.13c-.16-.25-.38-.21-.61-.14-.47.14-.81.41-.92.92-.06.28,0,.53.19.76.36.43.92.6,1.41.4.58-.25.79-.58.7-1.31-.03-.25-.12-.31-.57-.5h-.01Z"/>
        <path class="uuid-72f2ec1f-c612-4190-a0c5-2e80812e54b4"
              d="m248.27,342.8c-1.02-.52-1.54-1.49-1.38-2.49.08-.5.34-.86.8-1.04.48-.18.99-.32,1.49-.47.26-.07.5,0,.69.2.11.11.22.24.36.33.81.51,1.05,1.27.98,2.16-.06.88-.71,1.5-1.59,1.57-.49.04-.96-.06-1.35-.26h0Zm.55-.91c.19.02.46.08.72.08.3,0,.5-.19.57-.49.08-.31.06-.62-.07-.92-.17-.39-.72-.66-1.14-.56-.23.05-.45.12-.66.2-.25.1-.31.21-.31.48.02.57.37.91.9,1.21h0Z"/>
        <path class="uuid-72f2ec1f-c612-4190-a0c5-2e80812e54b4"
              d="m257.7,324.07c-.64-.31-1-.79-1.14-1.48-.06-.31-.05-.62,0-.93.09-.53.38-.93.85-1.17.35-.18.72-.32,1.1-.44.35-.11.69-.1.97.22.08.09.2.15.31.21.37.21.6.53.72.92.08.26.14.53.14.8.04,1.62-1.5,2.59-2.95,1.88h0Zm.43-.96c.66.34,1.35,0,1.45-.74.01-.12.01-.25,0-.37-.05-.6-.42-.91-1.01-.81-.26.04-.5.19-.74.31-.06.03-.11.12-.15.19-.23.47,0,1.18.45,1.42h0Z"/>
        <path class="uuid-72f2ec1f-c612-4190-a0c5-2e80812e54b4"
              d="m245.41,336.7c.22.1.35.33.34.53,0,.23-.17.43-.4.5-.21.07-.45,0-.55-.17-.11-.17-.12-.35,0-.52.09-.11.19-.22.31-.29.1-.05.24-.04.31-.04h-.01Z"/>
        <path class="uuid-72f2ec1f-c612-4190-a0c5-2e80812e54b4"
              d="m264.26,329.07c-.14-.14-.18-.35-.1-.52.08-.17.27-.27.47-.23.12.03.24.07.35.13.16.09.23.25.2.43-.06.34-.39.5-.76.32-.03-.03-.1-.07-.16-.13Z"/>
        <path class="uuid-72f2ec1f-c612-4190-a0c5-2e80812e54b4"
              d="m253.86,342.27c.25.12.36.45.22.7-.13.23-.41.33-.65.23-.25-.11-.35-.37-.23-.62.14-.29.42-.42.66-.31Z"/>
        <path class="uuid-72f2ec1f-c612-4190-a0c5-2e80812e54b4"
              d="m243.72,333.99c.22.13.29.42.16.66-.14.24-.4.33-.64.21-.25-.13-.35-.48-.2-.7.14-.21.46-.29.67-.17h.01Z"/>
        <path class="uuid-72f2ec1f-c612-4190-a0c5-2e80812e54b4"
              d="m261.54,339.14c.11-.23.45-.33.7-.21.21.11.3.36.2.58-.12.25-.42.35-.69.21-.22-.11-.32-.38-.22-.58h0Z"/>
        <path class="uuid-72f2ec1f-c612-4190-a0c5-2e80812e54b4"
              d="m245.51,323.19c.13-.25.43-.35.69-.22.2.1.3.38.2.58-.12.23-.48.35-.7.23-.2-.11-.29-.38-.19-.59Z"/>
        <path class="uuid-72f2ec1f-c612-4190-a0c5-2e80812e54b4"
              d="m249.22,320.88c.19.13.27.41.17.61-.11.23-.42.33-.64.21-.23-.12-.31-.41-.18-.64s.44-.31.65-.18Z"/>
        <path class="uuid-72f2ec1f-c612-4190-a0c5-2e80812e54b4"
              d="m262.11,325.18c.1-.25.36-.37.61-.27.24.09.35.33.26.55-.1.25-.36.37-.61.27-.24-.1-.34-.33-.26-.56h0Z"/>
        <path class="uuid-72f2ec1f-c612-4190-a0c5-2e80812e54b4"
              d="m265.27,331.73c.23.09.33.33.25.56-.09.25-.36.36-.61.26-.23-.09-.34-.33-.25-.56.1-.25.37-.36.61-.26Z"/>
        <path class="uuid-72f2ec1f-c612-4190-a0c5-2e80812e54b4"
              d="m254.68,320.32c.21.1.3.38.19.59s-.38.31-.59.2c-.2-.1-.3-.38-.19-.59.1-.2.38-.3.59-.2Z"/>
        <path class="uuid-72f2ec1f-c612-4190-a0c5-2e80812e54b4"
              d="m242.17,331.04c.12-.22.39-.31.59-.2.19.1.29.39.19.59-.1.21-.37.3-.59.19s-.31-.36-.19-.58Z"/>
        <path class="uuid-72f2ec1f-c612-4190-a0c5-2e80812e54b4"
              d="m259.68,340.61c.1-.22.37-.33.58-.24.21.08.32.37.24.58-.08.21-.37.32-.58.23-.22-.09-.32-.36-.23-.58h0Z"/>
        <path class="uuid-72f2ec1f-c612-4190-a0c5-2e80812e54b4"
              d="m253.26,332.67c-.58-.28-.9-.65-1-1.18-.24-1.3,1.07-2.45,2.34-2.03.04.02.09.03.12.05.27.2.55.38.8.6.34.3.52.7.56,1.16.05.61-.22,1.1-.78,1.37-.71.34-1.42.29-2.02.03h-.02Zm1.23-2.08c-.23-.15-.49-.12-.75-.02-.27.1-.39.3-.4.57-.02.26.12.45.41.55.32.11.64.15.97.02.27-.1.37-.31.28-.59-.08-.25-.21-.39-.52-.53h0Z"/>
        <path class="uuid-5767d60d-b7f1-4884-9d17-0d362b07c6d8"
              d="m10.31,292.96h63.83c1.88,0,3.4,1.53,3.4,3.4v42.89c0,1.88-1.53,3.4-3.4,3.4H10.56c-2.02,0-3.66-1.64-3.66-3.66v-42.64c0-1.88,1.53-3.4,3.4-3.4Z"
              transform="translate(233.86 574.84) rotate(150.86)"/>
        <rect class="uuid-5767d60d-b7f1-4884-9d17-0d362b07c6d8" x="12.66" y="297.18" width="59.57" height="41.02"
              transform="translate(234.22 574.5) rotate(150.86)"/>
        <rect class="uuid-5767d60d-b7f1-4884-9d17-0d362b07c6d8" x="17.05" y="312.42" width="10.04" height="12.6"
              transform="translate(196.55 586.35) rotate(150.86)"/>
        <line class="uuid-5767d60d-b7f1-4884-9d17-0d362b07c6d8" x1="56.18" y1="294.44" x2="38.49" y2="304.3"/>
        <line class="uuid-5767d60d-b7f1-4884-9d17-0d362b07c6d8" x1="59.5" y1="300.39" x2="41.81" y2="310.25"/>
        <line class="uuid-5767d60d-b7f1-4884-9d17-0d362b07c6d8" x1="62.32" y1="305.44" x2="44.63" y2="315.31"/>
        <line class="uuid-5767d60d-b7f1-4884-9d17-0d362b07c6d8" x1="46.08" y1="330.67" x2="27.27" y2="341.16"/>
        <line class="uuid-5767d60d-b7f1-4884-9d17-0d362b07c6d8" x1="43.98" y1="325.6" x2="32.05" y2="332.25"/>
        <line class="uuid-5767d60d-b7f1-4884-9d17-0d362b07c6d8" x1="28.82" y1="334.06" x2="24.62" y2="336.4"/>
        <line class="uuid-6d050550-bfa0-4858-86b4-fa57802138a7" x1="66.88" y1="289.5" x2="59.87" y2="287.76"/>
        <line class="uuid-6d050550-bfa0-4858-86b4-fa57802138a7" x1="71.34" y1="297.51" x2="64.33" y2="295.77"/>
        <line class="uuid-6d050550-bfa0-4858-86b4-fa57802138a7" x1="75.62" y1="305.19" x2="68.61" y2="303.45"/>
        <line class="uuid-6d050550-bfa0-4858-86b4-fa57802138a7" x1="79.9" y1="312.87" x2="72.89" y2="311.13"/>
        <line class="uuid-6d050550-bfa0-4858-86b4-fa57802138a7" x1="83.68" y1="320.24" x2="77.06" y2="318.6"/>
        <line class="uuid-6d050550-bfa0-4858-86b4-fa57802138a7" x1="77" y1="326.78" x2="70.95" y2="325.28"/>
        <line class="uuid-6d050550-bfa0-4858-86b4-fa57802138a7" x1="67.74" y1="332.04" x2="61.69" y2="330.54"/>
        <line class="uuid-6d050550-bfa0-4858-86b4-fa57802138a7" x1="58.95" y1="336.94" x2="52.91" y2="335.44"/>
        <line class="uuid-6d050550-bfa0-4858-86b4-fa57802138a7" x1="49.85" y1="342.01" x2="43.8" y2="340.51"/>
        <line class="uuid-6d050550-bfa0-4858-86b4-fa57802138a7" x1="41.02" y1="346.84" x2="34.98" y2="345.34"/>
        <line class="uuid-6d050550-bfa0-4858-86b4-fa57802138a7" x1="32.61" y1="351.63" x2="26.56" y2="350.13"/>
        <line class="uuid-6d050550-bfa0-4858-86b4-fa57802138a7" x1="26.44" y1="350.1" x2="18.55" y2="348.14"/>
        <line class="uuid-6d050550-bfa0-4858-86b4-fa57802138a7" x1="22.27" y1="342.77" x2="14.71" y2="340.89"/>
        <line class="uuid-6d050550-bfa0-4858-86b4-fa57802138a7" x1="18.19" y1="335.35" x2="10.5" y2="333.44"/>
        <line class="uuid-6d050550-bfa0-4858-86b4-fa57802138a7" x1="14.13" y1="328.07" x2="6.33" y2="325.97"/>
        <line class="uuid-6d050550-bfa0-4858-86b4-fa57802138a7" x1="10.03" y1="320.72" x2="2.34" y2="318.81"/>
        <line class="uuid-6d050550-bfa0-4858-86b4-fa57802138a7" x1="10.94" y1="311.87" x2="4.65" y2="310.31"/>
        <line class="uuid-6d050550-bfa0-4858-86b4-fa57802138a7" x1="19.66" y1="307.01" x2="13.19" y2="305.4"/>
        <line class="uuid-6d050550-bfa0-4858-86b4-fa57802138a7" x1="28.93" y1="301.84" x2="22.32" y2="300.46"/>
        <line class="uuid-6d050550-bfa0-4858-86b4-fa57802138a7" x1="37.38" y1="297.13" x2="31.09" y2="295.57"/>
        <line class="uuid-6d050550-bfa0-4858-86b4-fa57802138a7" x1="46.68" y1="291.95" x2="40.39" y2="290.39"/>
        <line class="uuid-6d050550-bfa0-4858-86b4-fa57802138a7" x1="54.9" y1="287.36" x2="48.73" y2="285.83"/>
    </g>
</svg>